# xmcd CD database file
#
# Track frame offsets:
#	150
#	15050
#	30558
#	40447
#	52109
#	61537
#	72847
#	85142
#	96336
#	112177
#	120306
#	132832
#
# Disc length: 2093 seconds
#
# Revision: 0
# Processed by: cddbd v1.5.2PL0 Copyright (c) Steve Scherf et al.
# Submitted via: CDex 1.51
#
DISCID=95082b0c
DTITLE=Tim Janis - The American Christmas Carol
DYEAR=2006
DGENRE=New Age
TTITLE0=We Adore You
TTITLE1=Let The Earth Sing
TTITLE2=Star Of Wonder
TTITLE3=A King Is Born
TTITLE4=Do You Hear What I Hear
TTITLE5=By Highest Heaven Adored
TTITLE6=You Are Beautiful
TTITLE7=It Came Upon The Midnight Clear
TTITLE8=God With Us
TTITLE9=Away In A Manger
TTITLE10=Worthy Of All Praise
TTITLE11=Open The Eyes Of My Heart
EXTD=YEAR: 2006
EXTT0=
EXTT1=
EXTT2=
EXTT3=
EXTT4=
EXTT5=
EXTT6=
EXTT7=
EXTT8=
EXTT9=
EXTT10=
EXTT11=
PLAYORDER=
